<svg version="1.1" id="Layer_1" xmlns="http://www.w3.org/2000/svg" xmlns:xlink="http://www.w3.org/1999/xlink" x="0px" y="0px"
	 width="100%" viewBox="0 0 457 457" enable-background="new 0 0 457 457" xml:space="preserve">
<path fill="#FFFFFF" opacity="1.000000" stroke="none" 
	d="
M265.000000,458.000000 
	C176.666672,458.000000 88.833336,458.000000 1.000000,458.000000 
	C1.000000,305.666656 1.000000,153.333328 1.000000,1.000000 
	C153.333328,1.000000 305.666656,1.000000 458.000000,1.000000 
	C458.000000,153.333328 458.000000,305.666656 458.000000,458.000000 
	C393.833344,458.000000 329.666656,458.000000 265.000000,458.000000 
M135.359146,260.760559 
	C136.099503,259.229156 136.839874,257.697784 137.640549,256.067780 
	C137.640549,256.067780 137.697891,255.967407 138.349365,256.003571 
	C138.784180,256.007263 139.219009,256.010956 139.682053,256.844849 
	C139.682053,264.544373 139.682053,272.243896 139.682053,279.643738 
	C151.800232,279.643738 163.876358,279.643738 175.832382,279.643738 
	C175.832382,263.393524 175.832382,247.506042 175.832382,231.618561 
	C176.208633,231.554932 176.584869,231.491287 176.961121,231.427658 
	C183.970734,242.516357 190.980347,253.605072 198.162018,264.965942 
	C198.049957,264.833466 198.149246,264.950836 198.248520,265.068237 
	C206.355499,253.416183 214.462479,241.764130 223.293854,229.070908 
	C223.293854,246.664261 223.293854,263.166748 223.293854,279.563812 
	C247.484238,279.563812 271.042633,279.563812 294.858154,279.563812 
	C294.858154,269.836700 294.858154,260.550537 294.858154,250.511627 
	C297.375519,250.784378 300.803894,250.191818 301.645630,251.400528 
	C308.015259,260.547363 313.877563,270.047455 320.262360,280.005341 
	C332.171356,280.005341 344.829926,280.044708 357.486816,279.918671 
	C358.350708,279.910095 359.202271,278.661255 360.618042,277.425629 
	C360.857025,276.666168 361.095978,275.906677 362.025726,275.214935 
	C362.528595,275.650452 363.031464,276.085968 363.146088,277.281586 
	C363.825714,278.139221 364.505341,278.996826 366.096313,279.934357 
	C385.701111,279.934357 405.305878,279.934357 424.948853,279.934357 
	C424.948853,269.380035 424.948853,259.340881 424.948853,248.999466 
	C406.433533,248.999466 388.300262,248.999466 370.468658,248.999466 
	C370.626801,245.946884 370.769562,243.191467 370.939453,239.911926 
	C372.885315,239.911926 374.671021,239.911743 376.456726,239.911942 
	C389.617828,239.913406 402.780182,240.000153 415.938385,239.804703 
	C417.516907,239.781250 420.394592,238.281525 420.432770,237.372055 
	C420.783142,229.033203 420.638977,220.673584 420.638977,212.036530 
	C403.290833,212.036530 387.183044,212.036530 370.996246,212.036530 
	C370.801208,209.216629 370.627411,206.703735 370.427673,203.815460 
	C388.625183,203.815460 406.709869,203.815460 424.741669,203.815460 
	C424.741669,193.372253 424.741669,183.299850 424.741669,173.130646 
	C395.674805,173.130646 366.882324,173.130646 337.426178,173.016647 
	C336.635406,174.442551 335.844635,175.868454 334.436920,177.464859 
	C334.024017,177.565552 333.611115,177.666245 332.902313,177.116745 
	C331.582123,176.435745 330.261902,175.754730 328.071869,175.023727 
	C326.649231,175.051910 325.193848,175.286484 323.810486,175.067047 
	C320.520996,174.545258 317.265533,173.808655 313.070740,173.004456 
	C283.884888,173.000427 254.699005,172.982666 225.513184,173.019196 
	C223.245285,173.022034 220.238525,172.015350 219.259491,176.122253 
	C218.617935,177.817200 217.976379,179.512161 217.234085,181.248413 
	C217.234085,181.248413 217.220291,181.356415 216.524460,181.329300 
	C213.677948,185.550598 210.733566,189.709961 208.011734,194.010178 
	C205.140869,198.545807 202.482437,203.215866 199.359970,208.449371 
	C198.144287,206.692001 197.244659,205.423096 196.377975,204.132050 
	C194.568344,201.436432 192.776138,198.729126 191.000000,196.000000 
	C191.000000,196.000000 190.973114,196.023361 190.913925,195.293198 
	C187.181946,188.765549 183.534714,182.186600 179.642151,175.756165 
	C178.916473,174.557327 177.205795,173.954712 175.021622,172.998413 
	C163.098862,172.998413 151.176102,172.998413 138.992371,172.998413 
	C138.992371,177.317520 138.992371,181.118011 138.992371,184.918503 
	C138.992371,188.598511 138.992371,192.278503 138.992371,196.429657 
	C137.203354,195.265961 136.133499,194.740829 135.286179,193.970825 
	C134.439789,193.201691 133.875366,192.131958 133.085709,191.289230 
	C125.042770,182.705566 117.154465,173.896317 104.104637,173.352097 
	C96.689560,173.042862 89.265244,172.092834 81.875595,172.340759 
	C76.978409,172.505066 71.291161,173.038254 67.471001,175.633789 
	C62.094273,179.286896 55.783497,181.358215 51.183090,186.736694 
	C46.147781,192.623642 41.411499,198.629440 38.432793,205.587387 
	C34.482674,214.814484 34.414337,224.835190 35.310410,234.745132 
	C36.472672,247.598938 42.118530,258.783813 51.125042,267.455139 
	C59.243206,275.271179 69.903770,279.570984 81.075386,281.970825 
	C81.903046,282.148621 82.781754,282.230621 83.624123,282.172974 
	C86.838493,281.952942 90.393105,280.643585 93.188713,281.595978 
	C99.492126,283.743408 104.607613,280.170532 109.951187,278.790253 
	C115.169586,277.442322 119.759979,273.663177 125.339462,270.969971 
	C126.569809,270.008911 127.800156,269.047852 129.009323,268.016602 
	C129.009323,268.016602 129.079620,268.037415 129.762619,267.945343 
	C131.365646,265.488861 132.968674,263.032410 134.974396,260.943512 
	C134.834641,260.827393 134.694870,260.711243 135.359146,260.760559 
z"/>
<path fill="#040404" opacity="1.000000" stroke="none" 
	d="
M137.697891,255.967407 
	C137.697891,255.967407 137.640549,256.067780 137.309387,256.300110 
	C136.170517,257.886658 135.362808,259.240875 134.555115,260.595123 
	C134.694870,260.711243 134.834641,260.827393 134.484833,260.914429 
	C132.356720,263.269348 130.718170,265.653381 129.079620,268.037415 
	C129.079620,268.037415 129.009323,268.016602 128.657837,267.996521 
	C127.079597,268.968079 125.852829,269.959686 124.626068,270.951324 
	C119.759979,273.663177 115.169586,277.442322 109.951187,278.790253 
	C104.607613,280.170532 99.492126,283.743408 93.188713,281.595978 
	C90.393105,280.643585 86.838493,281.952942 83.624123,282.172974 
	C82.781754,282.230621 81.903046,282.148621 81.075386,281.970825 
	C69.903770,279.570984 59.243206,275.271179 51.125042,267.455139 
	C42.118530,258.783813 36.472672,247.598938 35.310410,234.745132 
	C34.414337,224.835190 34.482674,214.814484 38.432793,205.587387 
	C41.411499,198.629440 46.147781,192.623642 51.183090,186.736694 
	C55.783497,181.358215 62.094273,179.286896 67.471001,175.633789 
	C71.291161,173.038254 76.978409,172.505066 81.875595,172.340759 
	C89.265244,172.092834 96.689560,173.042862 104.104637,173.352097 
	C117.154465,173.896317 125.042770,182.705566 133.085709,191.289230 
	C133.875366,192.131958 134.439789,193.201691 135.286179,193.970825 
	C136.133499,194.740829 137.203354,195.265961 138.992371,196.429657 
	C138.992371,192.278503 138.992371,188.598511 138.992371,184.918503 
	C138.992371,181.118011 138.992371,177.317520 138.992371,172.998413 
	C151.176102,172.998413 163.098862,172.998413 175.620117,173.371582 
	C180.525299,181.001724 184.814240,188.269440 189.186768,195.486542 
	C189.425949,195.881317 190.361633,195.854126 190.973114,196.023361 
	C190.973114,196.023361 191.000000,196.000000 190.937378,196.397430 
	C193.415375,201.581970 195.955963,206.369049 198.496552,211.156128 
	C199.092148,211.079926 199.687744,211.003723 200.283340,210.927505 
	C205.929001,201.070480 211.574646,191.213455 217.220306,181.356415 
	C217.220291,181.356415 217.234085,181.248413 217.617554,181.134674 
	C218.651901,179.330460 219.302795,177.639999 219.953705,175.949539 
	C220.238525,172.015350 223.245285,173.022034 225.513184,173.019196 
	C254.699005,172.982666 283.884888,173.000427 313.588135,173.446960 
	C315.777069,174.926102 317.380310,176.676315 319.135040,176.844254 
	C322.348663,177.151825 325.651703,176.525024 328.940338,176.576904 
	C330.374878,177.166306 331.786530,177.466629 333.198212,177.766937 
	C333.611115,177.666245 334.024017,177.565552 334.735474,177.745438 
	C335.591858,178.409637 336.149689,178.793259 337.040436,179.337128 
	C339.813629,180.768967 342.253937,182.040558 344.733978,183.602814 
	C344.845520,184.273285 344.917297,184.653061 345.026276,185.381836 
	C346.109344,186.483871 347.155182,187.236908 348.490753,188.157227 
	C350.571228,191.863022 352.362000,195.401535 353.896515,199.112198 
	C354.170990,199.827835 354.701660,200.371323 355.447754,200.926300 
	C355.663208,200.937790 356.093750,200.966599 356.052002,201.384552 
	C356.232056,204.503815 356.453796,207.205109 356.523193,210.222778 
	C356.389587,211.703293 356.408356,212.867432 356.294159,214.410339 
	C356.170502,215.852829 356.179749,216.916550 356.091187,218.386658 
	C354.769623,222.247818 353.545868,225.702591 352.288879,229.194000 
	C352.127930,229.375381 352.060089,229.543121 351.776672,229.970566 
	C350.455627,231.482101 349.410065,232.756927 347.997314,234.046356 
	C347.084747,234.965591 346.539368,235.870224 345.790588,237.034912 
	C344.621033,238.130737 343.654907,238.966492 342.356628,239.900330 
	C335.720490,244.107697 335.695618,244.293365 340.855011,249.782532 
	C341.053131,249.993317 341.407349,250.057373 341.986725,250.431183 
	C347.628174,258.863068 352.971741,267.053589 358.330231,275.591125 
	C358.916656,276.621826 359.488098,277.305542 360.059570,277.989227 
	C359.202271,278.661255 358.350708,279.910095 357.486816,279.918671 
	C344.829926,280.044708 332.171356,280.005341 320.262360,280.005341 
	C313.877563,270.047455 308.015259,260.547363 301.645630,251.400528 
	C300.803894,250.191818 297.375519,250.784378 294.858154,250.511627 
	C294.858154,260.550537 294.858154,269.836700 294.858154,279.563812 
	C271.042633,279.563812 247.484238,279.563812 223.293854,279.563812 
	C223.293854,263.166748 223.293854,246.664261 223.293854,229.070908 
	C214.462479,241.764130 206.355499,253.416183 198.248535,265.068237 
	C198.149246,264.950836 198.049957,264.833466 198.162018,264.965942 
	C190.980347,253.605072 183.970734,242.516357 176.961121,231.427658 
	C176.584869,231.491287 176.208633,231.554932 175.832382,231.618561 
	C175.832382,247.506042 175.832382,263.393524 175.832382,279.643738 
	C163.876358,279.643738 151.800232,279.643738 139.682053,279.643738 
	C139.682053,272.243896 139.682053,264.544373 139.788879,256.013367 
	C139.895721,236.855942 139.895721,218.529953 139.895721,200.203979 
	C139.305984,200.055008 138.716232,199.906052 138.126495,199.757095 
	C128.366577,205.663513 118.606667,211.569946 108.527924,217.669312 
	C107.434029,208.164429 99.517281,206.193848 92.400345,203.639755 
	C90.550499,202.975922 87.888145,203.850571 85.841278,204.643799 
	C83.244080,205.650314 80.592224,206.541794 78.882202,209.376617 
	C77.193657,212.175873 73.711510,214.049576 72.517273,216.947845 
	C71.256294,220.008057 73.612724,224.136276 70.436165,227.127899 
	C70.353134,227.206070 71.349548,228.314880 71.711121,229.011322 
	C72.119690,229.798309 72.715561,230.688858 72.652740,231.489059 
	C71.921349,240.806808 79.493095,249.225906 88.912804,249.780472 
	C99.107994,250.380707 103.615463,242.384399 109.794022,236.716705 
	C111.116737,236.921143 112.896210,236.762146 114.202278,237.472977 
	C119.922729,240.586395 125.878174,243.470657 130.987152,247.422226 
	C133.669449,249.496887 139.373169,250.156265 137.697891,255.967407 
M294.501099,203.043503 
	C293.871185,203.512543 292.708496,203.964157 292.692505,204.453293 
	C292.499023,210.369965 292.315674,216.298981 292.569733,222.205872 
	C292.610046,223.142563 294.781189,224.681793 296.032745,224.750595 
	C301.138336,225.031265 306.316040,225.252792 311.371643,224.668854 
	C313.944916,224.371628 317.903137,224.477036 318.220154,219.534271 
	C318.355835,219.433258 318.491516,219.332245 319.260071,219.682007 
	C320.056061,219.041946 321.248169,218.563950 321.586639,217.736679 
	C324.889343,209.664490 318.104584,202.178726 307.796722,203.417358 
	C303.620392,203.390961 299.444061,203.364563 294.501099,203.043503 
M249.997101,221.967514 
	C244.063705,221.967514 238.130310,221.967514 232.278259,221.967514 
	C232.278259,225.305496 232.278259,228.043930 232.278259,231.015549 
	C238.197372,231.015549 243.837372,231.075912 249.475235,230.991913 
	C252.630936,230.944901 254.076904,232.174927 253.769257,235.465805 
	C253.282990,240.667282 252.951004,245.883652 252.603302,251.097000 
	C252.562347,251.711441 252.781509,252.875168 252.967667,252.893463 
	C256.056702,253.197098 259.195251,253.679214 262.236755,253.343216 
	C263.079559,253.250092 264.183136,250.653168 264.240509,249.169189 
	C264.470154,243.228485 264.335327,237.273697 264.335327,231.171890 
	C271.653137,231.171890 278.419434,231.171890 285.069763,231.171890 
	C285.069763,228.098312 285.069763,225.206482 285.069763,221.843857 
	C277.992126,221.843857 271.259644,221.843857 264.490356,221.843857 
	C264.490356,215.037125 264.490356,208.715530 264.810425,201.617706 
	C262.117065,196.476288 257.479431,199.689377 253.780502,199.411880 
	C253.025208,199.355225 251.353912,202.929291 251.211761,204.909180 
	C250.807663,210.537674 250.975632,216.207245 249.997101,221.967514 
z"/>
<path fill="#090909" opacity="1.000000" stroke="none" 
	d="
M338.089844,173.130646 
	C366.882324,173.130646 395.674805,173.130646 424.741669,173.130646 
	C424.741669,183.299850 424.741669,193.372253 424.741669,203.815460 
	C406.709869,203.815460 388.625183,203.815460 370.427673,203.815460 
	C370.627411,206.703735 370.801208,209.216629 370.996246,212.036530 
	C387.183044,212.036530 403.290833,212.036530 420.638977,212.036530 
	C420.638977,220.673584 420.783142,229.033203 420.432770,237.372055 
	C420.394592,238.281525 417.516907,239.781250 415.938385,239.804703 
	C402.780182,240.000153 389.617828,239.913406 376.456726,239.911942 
	C374.671021,239.911743 372.885315,239.911926 370.939453,239.911926 
	C370.769562,243.191467 370.626801,245.946884 370.468658,248.999466 
	C388.300262,248.999466 406.433533,248.999466 424.948853,248.999466 
	C424.948853,259.340881 424.948853,269.380035 424.948853,279.934357 
	C405.305878,279.934357 385.701111,279.934357 365.598572,279.570923 
	C364.578674,278.312164 364.056519,277.416809 363.534332,276.521484 
	C363.031464,276.085968 362.528595,275.650452 361.743286,275.140930 
	C361.460815,275.066895 361.422791,274.922485 361.308990,274.557404 
	C360.073944,269.722229 358.026306,266.027985 352.968689,264.788116 
	C353.499878,264.091675 354.309509,263.314697 354.195007,263.138580 
	C351.380402,258.809204 348.525116,254.501938 345.495544,250.322311 
	C345.141266,249.833588 343.728485,250.112137 343.015259,249.768280 
	C342.904327,247.887222 342.584564,246.272873 342.264801,244.658508 
	C342.621948,244.727966 342.979126,244.797424 343.336304,244.866867 
	C343.718079,243.223114 344.099854,241.579346 344.803833,240.026917 
	C346.408966,240.084442 348.252045,240.579300 348.873322,239.921051 
	C351.020294,237.646210 352.741547,234.969574 354.763062,232.430847 
	C354.901245,232.415756 355.056488,232.183533 355.399109,232.039215 
	C357.051697,228.670761 358.361664,225.446640 359.806061,221.896606 
	C359.365692,220.803986 358.790863,220.037292 358.292969,219.092377 
	C358.268890,218.664581 358.257416,218.410980 358.601135,218.009491 
	C358.927643,217.277069 358.988373,216.688477 359.352905,215.867783 
	C359.486084,212.335571 359.315460,209.035461 359.153687,205.313248 
	C359.331299,203.243240 359.500061,201.595352 359.712463,199.539337 
	C357.010712,194.285400 354.491455,189.287994 351.399170,184.674698 
	C350.292786,183.024124 347.801331,182.301956 345.613953,181.001221 
	C342.910431,179.099457 340.535004,177.352524 338.140320,175.291168 
	C338.110596,174.361374 338.100220,173.746017 338.089844,173.130646 
z"/>
<path fill="#F7F7F7" opacity="1.000000" stroke="none" 
	d="
M138.023621,255.985489 
	C139.373169,250.156265 133.669449,249.496887 130.987152,247.422226 
	C125.878174,243.470657 119.922729,240.586395 114.202278,237.472977 
	C112.896210,236.762146 111.116737,236.921143 109.794022,236.716705 
	C103.615463,242.384399 99.107994,250.380707 88.912804,249.780472 
	C79.493095,249.225906 71.921349,240.806808 72.652740,231.489059 
	C72.715561,230.688858 72.119690,229.798309 71.711121,229.011322 
	C71.349548,228.314880 70.353134,227.206070 70.436165,227.127899 
	C73.612724,224.136276 71.256294,220.008057 72.517273,216.947845 
	C73.711510,214.049576 77.193657,212.175873 78.882202,209.376617 
	C80.592224,206.541794 83.244080,205.650314 85.841278,204.643799 
	C87.888145,203.850571 90.550499,202.975922 92.400345,203.639755 
	C99.517281,206.193848 107.434029,208.164429 108.527924,217.669312 
	C118.606667,211.569946 128.366577,205.663513 138.126495,199.757095 
	C138.716232,199.906052 139.305984,200.055008 139.895721,200.203979 
	C139.895721,218.529953 139.895721,236.855942 139.774780,255.598267 
	C139.219009,256.010956 138.784180,256.007263 138.023621,255.985489 
z"/>
<path fill="#6C6C6C" opacity="1.000000" stroke="none" 
	d="
M216.872375,181.342865 
	C211.574646,191.213455 205.929001,201.070480 200.283340,210.927505 
	C199.687744,211.003723 199.092148,211.079926 198.496552,211.156128 
	C195.955963,206.369049 193.415375,201.581970 190.925781,196.410736 
	C192.776138,198.729126 194.568344,201.436432 196.377975,204.132050 
	C197.244659,205.423096 198.144287,206.692001 199.359970,208.449371 
	C202.482437,203.215866 205.140869,198.545807 208.011734,194.010178 
	C210.733566,189.709961 213.677948,185.550598 216.872375,181.342865 
z"/>
<path fill="#6C6C6C" opacity="1.000000" stroke="none" 
	d="
M190.943512,195.658279 
	C190.361633,195.854126 189.425949,195.881317 189.186768,195.486542 
	C184.814240,188.269440 180.525299,181.001724 176.084137,173.410858 
	C177.205795,173.954712 178.916473,174.557327 179.642151,175.756165 
	C183.534714,182.186600 187.181946,188.765549 190.943512,195.658279 
z"/>
<path fill="#090909" opacity="1.000000" stroke="none" 
	d="
M328.917480,176.287827 
	C325.651703,176.525024 322.348663,177.151825 319.135040,176.844254 
	C317.380310,176.676315 315.777069,174.926102 314.050903,173.524139 
	C317.265533,173.808655 320.520996,174.545258 323.810486,175.067047 
	C325.193848,175.286484 326.649231,175.051910 328.594116,175.245392 
	C329.152222,175.765427 329.085938,176.039017 328.917480,176.287827 
z"/>
<path fill="#F7F7F7" opacity="1.000000" stroke="none" 
	d="
M129.421112,267.991394 
	C130.718170,265.653381 132.356720,263.269348 134.283493,260.730621 
	C132.968674,263.032410 131.365646,265.488861 129.421112,267.991394 
z"/>
<path fill="#757575" opacity="1.000000" stroke="none" 
	d="
M328.940338,176.576904 
	C329.085938,176.039017 329.152222,175.765427 329.029053,175.270401 
	C330.261902,175.754730 331.582123,176.435745 333.050262,177.441849 
	C331.786530,177.466629 330.374878,177.166306 328.940338,176.576904 
z"/>
<path fill="#6C6C6C" opacity="1.000000" stroke="none" 
	d="
M219.606598,176.035889 
	C219.302795,177.639999 218.651901,179.330460 217.667908,181.114014 
	C217.976379,179.512161 218.617935,177.817200 219.606598,176.035889 
z"/>
<path fill="#757575" opacity="1.000000" stroke="none" 
	d="
M337.757996,173.073639 
	C338.100220,173.746017 338.110596,174.361374 337.809448,175.530182 
	C337.234436,177.114716 336.970978,178.145782 336.707520,179.176880 
	C336.149689,178.793259 335.591858,178.409637 335.043945,177.660187 
	C335.844635,175.868454 336.635406,174.442551 337.757996,173.073639 
z"/>
<path fill="#F7F7F7" opacity="1.000000" stroke="none" 
	d="
M134.957123,260.677856 
	C135.362808,259.240875 136.170517,257.886658 137.279221,256.349426 
	C136.839874,257.697784 136.099503,259.229156 134.957123,260.677856 
z"/>
<path fill="#F7F7F7" opacity="1.000000" stroke="none" 
	d="
M124.982758,270.960632 
	C125.852829,269.959686 127.079597,268.968079 128.668427,268.031616 
	C127.800156,269.047852 126.569809,270.008911 124.982758,270.960632 
z"/>
<path fill="#B5B5B5" opacity="1.000000" stroke="none" 
	d="
M361.422791,274.922485 
	C361.422791,274.922485 361.460815,275.066895 361.397888,275.107056 
	C361.095978,275.906677 360.857025,276.666168 360.338806,277.707428 
	C359.488098,277.305542 358.916656,276.621826 358.845917,275.522095 
	C360.038696,275.044891 360.730743,274.983673 361.422791,274.922485 
z"/>
<path fill="#B0B0B0" opacity="1.000000" stroke="none" 
	d="
M363.340210,276.901550 
	C364.056519,277.416809 364.578674,278.312164 365.142914,279.530945 
	C364.505341,278.996826 363.825714,278.139221 363.340210,276.901550 
z"/>
<path fill="#F9F9F9" opacity="1.000000" stroke="none" 
	d="
M264.490356,202.393921 
	C264.490356,208.715530 264.490356,215.037125 264.490356,221.843857 
	C271.259644,221.843857 277.992126,221.843857 285.069763,221.843857 
	C285.069763,225.206482 285.069763,228.098312 285.069763,231.171890 
	C278.419434,231.171890 271.653137,231.171890 264.335327,231.171890 
	C264.335327,237.273697 264.470154,243.228485 264.240509,249.169189 
	C264.183136,250.653168 263.079559,253.250092 262.236755,253.343216 
	C259.195251,253.679214 256.056702,253.197098 252.967667,252.893463 
	C252.781509,252.875168 252.562347,251.711441 252.603302,251.097000 
	C252.951004,245.883652 253.282990,240.667282 253.769257,235.465805 
	C254.076904,232.174927 252.630936,230.944901 249.475235,230.991913 
	C243.837372,231.075912 238.197372,231.015549 232.278259,231.015549 
	C232.278259,228.043930 232.278259,225.305496 232.278259,221.967514 
	C238.130310,221.967514 244.063705,221.967514 250.897827,221.992264 
	C252.540405,220.931625 253.878952,219.870041 253.923370,218.756821 
	C254.144180,213.222656 254.024139,207.674881 254.024139,201.486420 
	C257.803558,201.814133 261.146942,202.104034 264.490356,202.393921 
z"/>
<path fill="#FCFCFC" opacity="1.000000" stroke="none" 
	d="
M318.627228,219.231216 
	C318.491516,219.332245 318.355835,219.433258 317.729431,219.883469 
	C316.659576,220.785858 316.088348,221.810303 315.500061,221.820190 
	C308.760986,221.933380 302.019257,221.892227 295.267731,221.892227 
	C295.267731,215.451279 295.267731,209.394730 295.267731,203.338165 
	C299.444061,203.364563 303.620392,203.390961 308.367493,203.757599 
	C310.510101,204.733612 312.170349,205.213089 313.633667,206.040771 
	C315.992218,207.374802 319.564056,208.529068 320.167145,210.507858 
	C320.934418,213.025360 319.252991,216.289154 318.627228,219.231216 
z"/>
<path fill="#B0B0B0" opacity="1.000000" stroke="none" 
	d="
M361.308990,274.557404 
	C360.730743,274.983673 360.038696,275.044891 358.830963,275.175110 
	C352.971741,267.053589 347.628174,258.863068 342.259857,250.347290 
	C342.425537,250.026337 342.615967,250.030670 342.806396,250.034973 
	C343.728485,250.112137 345.141266,249.833588 345.495544,250.322311 
	C348.525116,254.501938 351.380402,258.809204 354.195007,263.138580 
	C354.309509,263.314697 353.499878,264.091675 352.968689,264.788116 
	C358.026306,266.027985 360.073944,269.722229 361.308990,274.557404 
z"/>
<path fill="#707070" opacity="1.000000" stroke="none" 
	d="
M294.884399,203.190826 
	C295.267731,209.394730 295.267731,215.451279 295.267731,221.892227 
	C302.019257,221.892227 308.760986,221.933380 315.500061,221.820190 
	C316.088348,221.810303 316.659576,220.785858 317.612366,220.108612 
	C317.903137,224.477036 313.944916,224.371628 311.371643,224.668854 
	C306.316040,225.252792 301.138336,225.031265 296.032745,224.750595 
	C294.781189,224.681793 292.610046,223.142563 292.569733,222.205872 
	C292.315674,216.298981 292.499023,210.369965 292.692505,204.453293 
	C292.708496,203.964157 293.871185,203.512543 294.884399,203.190826 
z"/>
<path fill="#646464" opacity="1.000000" stroke="none" 
	d="
M264.650391,202.005814 
	C261.146942,202.104034 257.803558,201.814133 254.024139,201.486420 
	C254.024139,207.674881 254.144180,213.222656 253.923370,218.756821 
	C253.878952,219.870041 252.540405,220.931625 251.358459,221.938843 
	C250.975632,216.207245 250.807663,210.537674 251.211761,204.909180 
	C251.353912,202.929291 253.025208,199.355225 253.780502,199.411880 
	C257.479431,199.689377 262.117065,196.476288 264.650391,202.005814 
z"/>
<path fill="#AFAFAF" opacity="1.000000" stroke="none" 
	d="
M345.942047,181.156036 
	C347.801331,182.301956 350.292786,183.024124 351.399170,184.674698 
	C354.491455,189.287994 357.010712,194.285400 359.326019,199.546799 
	C357.961884,200.297119 357.027802,200.631866 356.093750,200.966599 
	C356.093750,200.966599 355.663208,200.937790 355.435303,200.629608 
	C354.855835,199.860962 354.504272,199.400513 354.152740,198.940063 
	C352.362000,195.401535 350.571228,191.863022 348.526550,187.798019 
	C348.129181,186.358170 347.985779,185.444824 347.805817,184.298782 
	C346.749115,184.574158 345.869080,184.803497 344.989075,185.032837 
	C344.917297,184.653061 344.845520,184.273285 344.988159,183.394547 
	C345.449036,182.315735 345.695557,181.735901 345.942047,181.156036 
z"/>
<path fill="#AFAFAF" opacity="1.000000" stroke="none" 
	d="
M354.624908,232.445923 
	C352.741547,234.969574 351.020294,237.646210 348.873322,239.921051 
	C348.252045,240.579300 346.408966,240.084442 344.504028,240.088699 
	C343.484253,239.973541 343.086548,239.887894 342.688812,239.802246 
	C343.654907,238.966492 344.621033,238.130737 346.144287,237.223602 
	C347.255768,236.112091 347.810150,235.071930 348.364502,234.031769 
	C349.410065,232.756927 350.455627,231.482101 351.854126,230.251785 
	C352.134064,230.476532 352.061066,230.656769 352.218750,231.158417 
	C353.174622,231.801849 353.899780,232.123886 354.624908,232.445923 
z"/>
<path fill="#707070" opacity="1.000000" stroke="none" 
	d="
M318.943665,219.456604 
	C319.252991,216.289154 320.934418,213.025360 320.167145,210.507858 
	C319.564056,208.529068 315.992218,207.374802 313.633667,206.040771 
	C312.170349,205.213089 310.510101,204.733612 308.809357,203.749023 
	C318.104584,202.178726 324.889343,209.664490 321.586639,217.736679 
	C321.248169,218.563950 320.056061,219.041946 318.943665,219.456604 
z"/>
<path fill="#CECECE" opacity="1.000000" stroke="none" 
	d="
M342.356628,239.900330 
	C343.086548,239.887894 343.484253,239.973541 344.181824,239.997375 
	C344.099854,241.579346 343.718079,243.223114 343.336304,244.866867 
	C342.979126,244.797424 342.621948,244.727966 342.264801,244.658508 
	C342.584564,246.272873 342.904327,247.887222 343.015259,249.768280 
	C342.615967,250.030670 342.425537,250.026337 341.961975,250.105911 
	C341.407349,250.057373 341.053131,249.993317 340.855011,249.782532 
	C335.695618,244.293365 335.720490,244.107697 342.356628,239.900330 
z"/>
<path fill="#AFAFAF" opacity="1.000000" stroke="none" 
	d="
M359.671600,222.222519 
	C358.361664,225.446640 357.051697,228.670761 355.400085,231.543823 
	C355.293121,230.241608 355.527863,229.290451 355.727386,228.378052 
	C355.692200,228.416824 355.793579,228.430328 355.161621,228.354248 
	C354.106842,228.314133 353.684021,228.350098 353.137695,228.714355 
	C352.783508,229.080887 352.552795,229.119125 352.322113,229.157349 
	C353.545868,225.702591 354.769623,222.247818 356.450256,218.396454 
	C357.383240,218.051041 357.859314,218.102188 358.335388,218.153336 
	C358.257416,218.410980 358.268890,218.664581 358.189575,219.460114 
	C358.563354,220.744904 359.117493,221.483704 359.671600,222.222519 
z"/>
<path fill="#AFAFAF" opacity="1.000000" stroke="none" 
	d="
M359.144836,205.735352 
	C359.315460,209.035461 359.486084,212.335571 359.275330,215.556305 
	C358.071655,214.995163 357.249390,214.513367 356.427094,214.031570 
	C356.408356,212.867432 356.389587,211.703293 356.927460,210.215637 
	C358.037659,208.506531 358.591248,207.120941 359.144836,205.735352 
z"/>
<path fill="#E9E9E9" opacity="1.000000" stroke="none" 
	d="
M345.613953,181.001221 
	C345.695557,181.735901 345.449036,182.315735 344.948364,183.103851 
	C342.253937,182.040558 339.813629,180.768967 337.040436,179.337128 
	C336.970978,178.145782 337.234436,177.114716 337.828766,175.844604 
	C340.535004,177.352524 342.910431,179.099457 345.613953,181.001221 
z"/>
<path fill="#BFBFBF" opacity="1.000000" stroke="none" 
	d="
M359.153687,205.313248 
	C358.591248,207.120941 358.037659,208.506531 357.079834,209.899261 
	C356.453796,207.205109 356.232056,204.503815 356.052002,201.384552 
	C357.027802,200.631866 357.961884,200.297119 359.282349,199.954926 
	C359.500061,201.595352 359.331299,203.243240 359.153687,205.313248 
z"/>
<path fill="#BFBFBF" opacity="1.000000" stroke="none" 
	d="
M356.294159,214.410339 
	C357.249390,214.513367 358.071655,214.995163 358.971527,215.788422 
	C358.988373,216.688477 358.927643,217.277069 358.601135,218.009491 
	C357.859314,218.102188 357.383240,218.051041 356.548096,217.990082 
	C356.179749,216.916550 356.170502,215.852829 356.294159,214.410339 
z"/>
<path fill="#090909" opacity="1.000000" stroke="none" 
	d="
M345.026245,185.381836 
	C345.869080,184.803497 346.749115,184.574158 347.805817,184.298782 
	C347.985779,185.444824 348.129181,186.358170 348.236816,187.630737 
	C347.155182,187.236908 346.109344,186.483871 345.026245,185.381836 
z"/>
<path fill="#090909" opacity="1.000000" stroke="none" 
	d="
M347.997314,234.046356 
	C347.810150,235.071930 347.255768,236.112091 346.347717,236.963562 
	C346.539368,235.870224 347.084747,234.965591 347.997314,234.046356 
z"/>
<path fill="#090909" opacity="1.000000" stroke="none" 
	d="
M352.129639,230.015076 
	C352.060089,229.543121 352.127930,229.375381 352.288879,229.194000 
	C352.552795,229.119125 352.783508,229.080887 353.047363,228.904037 
	C352.716370,229.455948 352.352203,230.146484 351.988037,230.837006 
	C352.061066,230.656769 352.134064,230.476532 352.129639,230.015076 
z"/>
<path fill="#090909" opacity="1.000000" stroke="none" 
	d="
M353.896515,199.112213 
	C354.504272,199.400513 354.855835,199.860962 355.219849,200.618134 
	C354.701660,200.371323 354.170990,199.827835 353.896515,199.112213 
z"/>
<path fill="#CECECE" opacity="1.000000" stroke="none" 
	d="
M352.218781,231.158417 
	C352.352203,230.146484 352.716370,229.455948 353.170868,228.575745 
	C353.684021,228.350098 354.106842,228.314133 355.152771,228.332336 
	C355.775879,228.386490 355.762573,228.339279 355.762573,228.339279 
	C355.527863,229.290451 355.293121,230.241608 355.057434,231.688156 
	C355.056488,232.183533 354.901245,232.415756 354.763062,232.430847 
	C353.899780,232.123886 353.174622,231.801849 352.218781,231.158417 
z"/>
<path fill="#BFBFBF" opacity="1.000000" stroke="none" 
	d="
M359.806061,221.896606 
	C359.117493,221.483704 358.563354,220.744904 358.112671,219.638336 
	C358.790863,220.037292 359.365692,220.803986 359.806061,221.896606 
z"/>
<path fill="#090909" opacity="1.000000" stroke="none" 
	d="
M355.727386,228.378052 
	C355.762573,228.339279 355.775879,228.386490 355.784729,228.408417 
	C355.793579,228.430328 355.692200,228.416824 355.727386,228.378052 
z"/>
</svg>